<svg id="visual" viewBox="0 0 900 300" width="900" height="300" xmlns="http://www.w3.org/2000/svg" xmlns:xlink="http://www.w3.org/1999/xlink" version="1.1"><rect x="0" y="0" width="900" height="300" fill="#27251F"></rect><path d="M0 200L21.5 200.8C43 201.7 86 203.3 128.8 200.5C171.7 197.7 214.3 190.3 257.2 185.5C300 180.7 343 178.3 385.8 179.2C428.7 180 471.3 184 514.2 191.2C557 198.3 600 208.7 642.8 211.5C685.7 214.3 728.3 209.7 771.2 204.3C814 199 857 193 878.5 190L900 187L900 301L878.5 301C857 301 814 301 771.2 301C728.3 301 685.7 301 642.8 301C600 301 557 301 514.2 301C471.3 301 428.7 301 385.8 301C343 301 300 301 257.2 301C214.3 301 171.7 301 128.8 301C86 301 43 301 21.5 301L0 301Z" fill="#fd5a1e"></path><path d="M0 196L21.5 198.8C43 201.7 86 207.3 128.8 212.7C171.7 218 214.3 223 257.2 221.3C300 219.7 343 211.3 385.8 208.7C428.7 206 471.3 209 514.2 211C557 213 600 214 642.8 213C685.7 212 728.3 209 771.2 213C814 217 857 228 878.5 233.5L900 239L900 301L878.5 301C857 301 814 301 771.2 301C728.3 301 685.7 301 642.8 301C600 301 557 301 514.2 301C471.3 301 428.7 301 385.8 301C343 301 300 301 257.2 301C214.3 301 171.7 301 128.8 301C86 301 43 301 21.5 301L0 301Z" fill="#f74439"></path><path d="M0 252L21.5 250.5C43 249 86 246 128.8 243.8C171.7 241.7 214.3 240.3 257.2 240.7C300 241 343 243 385.8 239.5C428.7 236 471.3 227 514.2 224.2C557 221.3 600 224.7 642.8 226C685.7 227.3 728.3 226.7 771.2 225C814 223.3 857 220.7 878.5 219.3L900 218L900 301L878.5 301C857 301 814 301 771.2 301C728.3 301 685.7 301 642.8 301C600 301 557 301 514.2 301C471.3 301 428.7 301 385.8 301C343 301 300 301 257.2 301C214.3 301 171.7 301 128.8 301C86 301 43 301 21.5 301L0 301Z" fill="#eb324c"></path><path d="M0 263L21.5 262.8C43 262.7 86 262.3 128.8 262.8C171.7 263.3 214.3 264.7 257.2 262C300 259.3 343 252.7 385.8 249C428.7 245.3 471.3 244.7 514.2 248.7C557 252.7 600 261.3 642.8 261.7C685.7 262 728.3 254 771.2 249.5C814 245 857 244 878.5 243.5L900 243L900 301L878.5 301C857 301 814 301 771.2 301C728.3 301 685.7 301 642.8 301C600 301 557 301 514.2 301C471.3 301 428.7 301 385.8 301C343 301 300 301 257.2 301C214.3 301 171.7 301 128.8 301C86 301 43 301 21.5 301L0 301Z" fill="#db265c"></path><path d="M0 281L21.5 281.2C43 281.3 86 281.7 128.8 282.2C171.7 282.7 214.3 283.3 257.2 280.2C300 277 343 270 385.8 268.3C428.7 266.7 471.3 270.3 514.2 271.7C557 273 600 272 642.8 270.5C685.7 269 728.3 267 771.2 267.5C814 268 857 271 878.5 272.5L900 274L900 301L878.5 301C857 301 814 301 771.2 301C728.3 301 685.7 301 642.8 301C600 301 557 301 514.2 301C471.3 301 428.7 301 385.8 301C343 301 300 301 257.2 301C214.3 301 171.7 301 128.8 301C86 301 43 301 21.5 301L0 301Z" fill="#c62368"></path></svg>