<svg id="visual" viewBox="0 0 900 300" width="900" height="300" xmlns="http://www.w3.org/2000/svg" xmlns:xlink="http://www.w3.org/1999/xlink" version="1.1"><rect x="0" y="0" width="900" height="300" fill="#27251F"></rect><path d="M0 175L21.5 178.5C43 182 86 189 128.8 190.7C171.7 192.3 214.3 188.7 257.2 191.7C300 194.7 343 204.3 385.8 207.5C428.7 210.7 471.3 207.3 514.2 202C557 196.7 600 189.3 642.8 192C685.7 194.7 728.3 207.3 771.2 206.8C814 206.3 857 192.7 878.5 185.8L900 179L900 301L878.5 301C857 301 814 301 771.2 301C728.3 301 685.7 301 642.8 301C600 301 557 301 514.2 301C471.3 301 428.7 301 385.8 301C343 301 300 301 257.2 301C214.3 301 171.7 301 128.8 301C86 301 43 301 21.5 301L0 301Z" fill="#fd5a1e"></path><path d="M0 234L21.5 229.3C43 224.7 86 215.3 128.8 215.8C171.7 216.3 214.3 226.7 257.2 227.5C300 228.3 343 219.7 385.8 217C428.7 214.3 471.3 217.7 514.2 215.3C557 213 600 205 642.8 204C685.7 203 728.3 209 771.2 214.2C814 219.3 857 223.7 878.5 225.8L900 228L900 301L878.5 301C857 301 814 301 771.2 301C728.3 301 685.7 301 642.8 301C600 301 557 301 514.2 301C471.3 301 428.7 301 385.8 301C343 301 300 301 257.2 301C214.3 301 171.7 301 128.8 301C86 301 43 301 21.5 301L0 301Z" fill="#f74439"></path><path d="M0 250L21.5 245.2C43 240.3 86 230.7 128.8 228.7C171.7 226.7 214.3 232.3 257.2 236.7C300 241 343 244 385.8 242.2C428.7 240.3 471.3 233.7 514.2 230.5C557 227.3 600 227.7 642.8 228.5C685.7 229.3 728.3 230.7 771.2 229C814 227.3 857 222.7 878.5 220.3L900 218L900 301L878.5 301C857 301 814 301 771.2 301C728.3 301 685.7 301 642.8 301C600 301 557 301 514.2 301C471.3 301 428.7 301 385.8 301C343 301 300 301 257.2 301C214.3 301 171.7 301 128.8 301C86 301 43 301 21.5 301L0 301Z" fill="#eb324c"></path><path d="M0 266L21.5 265.5C43 265 86 264 128.8 260.5C171.7 257 214.3 251 257.2 248.5C300 246 343 247 385.8 250.7C428.7 254.3 471.3 260.7 514.2 262.5C557 264.3 600 261.7 642.8 258.5C685.7 255.3 728.3 251.7 771.2 249.3C814 247 857 246 878.5 245.5L900 245L900 301L878.5 301C857 301 814 301 771.2 301C728.3 301 685.7 301 642.8 301C600 301 557 301 514.2 301C471.3 301 428.7 301 385.8 301C343 301 300 301 257.2 301C214.3 301 171.7 301 128.8 301C86 301 43 301 21.5 301L0 301Z" fill="#db265c"></path><path d="M0 262L21.5 264C43 266 86 270 128.8 272.3C171.7 274.7 214.3 275.3 257.2 275.2C300 275 343 274 385.8 274.8C428.7 275.7 471.3 278.3 514.2 276.7C557 275 600 269 642.8 268.5C685.7 268 728.3 273 771.2 273.2C814 273.3 857 268.7 878.5 266.3L900 264L900 301L878.5 301C857 301 814 301 771.2 301C728.3 301 685.7 301 642.8 301C600 301 557 301 514.2 301C471.3 301 428.7 301 385.8 301C343 301 300 301 257.2 301C214.3 301 171.7 301 128.8 301C86 301 43 301 21.5 301L0 301Z" fill="#c62368"></path></svg>