<svg id="visual" viewBox="0 0 960 540" width="960" height="540" xmlns="http://www.w3.org/2000/svg" xmlns:xlink="http://www.w3.org/1999/xlink" version="1.1"><path d="M0 131L14.5 131.8C29 132.7 58 134.3 87.2 149.5C116.3 164.7 145.7 193.3 174.8 182.5C204 171.7 233 121.3 262 101.7C291 82 320 93 349 93C378 93 407 82 436.2 98.2C465.3 114.3 494.7 157.7 523.8 175.7C553 193.7 582 186.3 611 171.8C640 157.3 669 135.7 698 128.5C727 121.3 756 128.7 785.2 134.2C814.3 139.7 843.7 143.3 872.8 147.8C902 152.3 931 157.7 945.5 160.3L960 163L960 0L945.5 0C931 0 902 0 872.8 0C843.7 0 814.3 0 785.2 0C756 0 727 0 698 0C669 0 640 0 611 0C582 0 553 0 523.8 0C494.7 0 465.3 0 436.2 0C407 0 378 0 349 0C320 0 291 0 262 0C233 0 204 0 174.8 0C145.7 0 116.3 0 87.2 0C58 0 29 0 14.5 0L0 0Z" fill="#000000"></path><path d="M0 201L14.5 201C29 201 58 201 87.2 214.5C116.3 228 145.7 255 174.8 245C204 235 233 188 262 163.7C291 139.3 320 137.7 349 135C378 132.3 407 128.7 436.2 147.5C465.3 166.3 494.7 207.7 523.8 223.8C553 240 582 231 611 220.3C640 209.7 669 197.3 698 189.3C727 181.3 756 177.7 785.2 183C814.3 188.3 843.7 202.7 872.8 206.2C902 209.7 931 202.3 945.5 198.7L960 195L960 161L945.5 158.3C931 155.7 902 150.3 872.8 145.8C843.7 141.3 814.3 137.7 785.2 132.2C756 126.7 727 119.3 698 126.5C669 133.7 640 155.3 611 169.8C582 184.3 553 191.7 523.8 173.7C494.7 155.7 465.3 112.3 436.2 96.2C407 80 378 91 349 91C320 91 291 80 262 99.7C233 119.3 204 169.7 174.8 180.5C145.7 191.3 116.3 162.7 87.2 147.5C58 132.3 29 130.7 14.5 129.8L0 129Z" fill="#4f1100"></path><path d="M0 260L14.5 254.7C29 249.3 58 238.7 87.2 247.7C116.3 256.7 145.7 285.3 174.8 277.2C204 269 233 224 262 199.7C291 175.3 320 171.7 349 175.3C378 179 407 190 436.2 212.5C465.3 235 494.7 269 523.8 277C553 285 582 267 611 256.3C640 245.7 669 242.3 698 236.2C727 230 756 221 785.2 229C814.3 237 843.7 262 872.8 272.7C902 283.3 931 279.7 945.5 277.8L960 276L960 193L945.5 196.7C931 200.3 902 207.7 872.8 204.2C843.7 200.7 814.3 186.3 785.2 181C756 175.7 727 179.3 698 187.3C669 195.3 640 207.7 611 218.3C582 229 553 238 523.8 221.8C494.7 205.7 465.3 164.3 436.2 145.5C407 126.7 378 130.3 349 133C320 135.7 291 137.3 262 161.7C233 186 204 233 174.8 243C145.7 253 116.3 226 87.2 212.5C58 199 29 199 14.5 199L0 199Z" fill="#753400"></path><path d="M0 395L14.5 398.7C29 402.3 58 409.7 87.2 409.7C116.3 409.7 145.7 402.3 174.8 400.5C204 398.7 233 402.3 262 406.8C291 411.3 320 416.7 349 413C378 409.3 407 396.7 436.2 396.7C465.3 396.7 494.7 409.3 523.8 408.5C553 407.7 582 393.3 611 387C640 380.7 669 382.3 698 373.3C727 364.3 756 344.7 785.2 345.7C814.3 346.7 843.7 368.3 872.8 375.5C902 382.7 931 375.3 945.5 371.7L960 368L960 274L945.5 275.8C931 277.7 902 281.3 872.8 270.7C843.7 260 814.3 235 785.2 227C756 219 727 228 698 234.2C669 240.3 640 243.7 611 254.3C582 265 553 283 523.8 275C494.7 267 465.3 233 436.2 210.5C407 188 378 177 349 173.3C320 169.7 291 173.3 262 197.7C233 222 204 267 174.8 275.2C145.7 283.3 116.3 254.7 87.2 245.7C58 236.7 29 247.3 14.5 252.7L0 258Z" fill="#a25701"></path><path d="M0 492L14.5 486.7C29 481.3 58 470.7 87.2 463.5C116.3 456.3 145.7 452.7 174.8 454.5C204 456.3 233 463.7 262 472.7C291 481.7 320 492.3 349 489.7C378 487 407 471 436.2 466.5C465.3 462 494.7 469 523.8 469C553 469 582 462 611 462C640 462 669 469 698 467.2C727 465.3 756 454.7 785.2 454.7C814.3 454.7 843.7 465.3 872.8 473.3C902 481.3 931 486.7 945.5 489.3L960 492L960 366L945.5 369.7C931 373.3 902 380.7 872.8 373.5C843.7 366.3 814.3 344.7 785.2 343.7C756 342.7 727 362.3 698 371.3C669 380.3 640 378.7 611 385C582 391.3 553 405.7 523.8 406.5C494.7 407.3 465.3 394.7 436.2 394.7C407 394.7 378 407.3 349 411C320 414.7 291 409.3 262 404.8C233 400.3 204 396.7 174.8 398.5C145.7 400.3 116.3 407.7 87.2 407.7C58 407.7 29 400.3 14.5 396.7L0 393Z" fill="#d17d02"></path><path d="M0 541L14.5 541C29 541 58 541 87.2 541C116.3 541 145.7 541 174.8 541C204 541 233 541 262 541C291 541 320 541 349 541C378 541 407 541 436.2 541C465.3 541 494.7 541 523.8 541C553 541 582 541 611 541C640 541 669 541 698 541C727 541 756 541 785.2 541C814.3 541 843.7 541 872.8 541C902 541 931 541 945.5 541L960 541L960 490L945.5 487.3C931 484.7 902 479.3 872.8 471.3C843.7 463.3 814.3 452.7 785.2 452.7C756 452.7 727 463.3 698 465.2C669 467 640 460 611 460C582 460 553 467 523.8 467C494.7 467 465.3 460 436.2 464.5C407 469 378 485 349 487.7C320 490.3 291 479.7 262 470.7C233 461.7 204 454.3 174.8 452.5C145.7 450.7 116.3 454.3 87.2 461.5C58 468.7 29 479.3 14.5 484.7L0 490Z" fill="#ffa500"></path></svg>