<svg id="visual" viewBox="0 0 960 300" width="960" height="300" xmlns="http://www.w3.org/2000/svg" xmlns:xlink="http://www.w3.org/1999/xlink" version="1.1"><rect x="0" y="0" width="960" height="300" fill="#000"></rect><path d="M0 222L7.7 211.7C15.3 201.3 30.7 180.7 45.8 175.8C61 171 76 182 91.2 186.2C106.3 190.3 121.7 187.7 137 196.5C152.3 205.3 167.7 225.7 183 234.8C198.3 244 213.7 242 228.8 230.5C244 219 259 198 274.2 185.3C289.3 172.7 304.7 168.3 320 178C335.3 187.7 350.7 211.3 365.8 218.5C381 225.7 396 216.3 411.2 213.5C426.3 210.7 441.7 214.3 457 207C472.3 199.7 487.7 181.3 503 183.2C518.3 185 533.7 207 548.8 206.3C564 205.7 579 182.3 594.2 181.5C609.3 180.7 624.7 202.3 640 212.7C655.3 223 670.7 222 685.8 210.8C701 199.7 716 178.3 731.2 173.8C746.3 169.3 761.7 181.7 777 194.5C792.3 207.3 807.7 220.7 823 222.5C838.3 224.3 853.7 214.7 868.8 213.8C884 213 899 221 914.2 210.8C929.3 200.7 944.7 172.3 952.3 158.2L960 144L960 301L952.3 301C944.7 301 929.3 301 914.2 301C899 301 884 301 868.8 301C853.7 301 838.3 301 823 301C807.7 301 792.3 301 777 301C761.7 301 746.3 301 731.2 301C716 301 701 301 685.8 301C670.7 301 655.3 301 640 301C624.7 301 609.3 301 594.2 301C579 301 564 301 548.8 301C533.7 301 518.3 301 503 301C487.7 301 472.3 301 457 301C441.7 301 426.3 301 411.2 301C396 301 381 301 365.8 301C350.7 301 335.3 301 320 301C304.7 301 289.3 301 274.2 301C259 301 244 301 228.8 301C213.7 301 198.3 301 183 301C167.7 301 152.3 301 137 301C121.7 301 106.3 301 91.2 301C76 301 61 301 45.8 301C30.7 301 15.3 301 7.7 301L0 301Z" fill="#ff9f1c" stroke-linecap="round" stroke-linejoin="miter"></path></svg>