<svg id="visual" viewBox="0 0 960 300" width="960" height="300" xmlns="http://www.w3.org/2000/svg" xmlns:xlink="http://www.w3.org/1999/xlink" version="1.1"><rect x="0" y="0" width="960" height="300" fill="#000"></rect><path d="M0 147L7.7 153.2C15.3 159.3 30.7 171.7 45.8 182.5C61 193.3 76 202.7 91.2 206.2C106.3 209.7 121.7 207.3 137 203C152.3 198.7 167.7 192.3 183 187.2C198.3 182 213.7 178 228.8 185.5C244 193 259 212 274.2 207.3C289.3 202.7 304.7 174.3 320 166.2C335.3 158 350.7 170 365.8 186.5C381 203 396 224 411.2 222.5C426.3 221 441.7 197 457 190.7C472.3 184.3 487.7 195.7 503 194.8C518.3 194 533.7 181 548.8 182.3C564 183.7 579 199.3 594.2 205C609.3 210.7 624.7 206.3 640 204.3C655.3 202.3 670.7 202.7 685.8 201C701 199.3 716 195.7 731.2 200.3C746.3 205 761.7 218 777 219.7C792.3 221.3 807.7 211.7 823 198.2C838.3 184.7 853.7 167.3 868.8 171.5C884 175.7 899 201.3 914.2 213C929.3 224.7 944.7 222.3 952.3 221.2L960 220L960 301L952.3 301C944.7 301 929.3 301 914.2 301C899 301 884 301 868.8 301C853.7 301 838.3 301 823 301C807.7 301 792.3 301 777 301C761.7 301 746.3 301 731.2 301C716 301 701 301 685.8 301C670.7 301 655.3 301 640 301C624.7 301 609.3 301 594.2 301C579 301 564 301 548.8 301C533.7 301 518.3 301 503 301C487.7 301 472.3 301 457 301C441.7 301 426.3 301 411.2 301C396 301 381 301 365.8 301C350.7 301 335.3 301 320 301C304.7 301 289.3 301 274.2 301C259 301 244 301 228.8 301C213.7 301 198.3 301 183 301C167.7 301 152.3 301 137 301C121.7 301 106.3 301 91.2 301C76 301 61 301 45.8 301C30.7 301 15.3 301 7.7 301L0 301Z" fill="#ff9f1c" stroke-linecap="round" stroke-linejoin="miter"></path></svg>