<svg id="visual" viewBox="0 0 900 300" width="900" height="300" xmlns="http://www.w3.org/2000/svg" xmlns:xlink="http://www.w3.org/1999/xlink" version="1.1"><rect x="0" y="0" width="900" height="300" fill="#27251F"></rect><path d="M0 145L6.5 147.5C13 150 26 155 39 158.2C52 161.3 65 162.7 78 159.3C91 156 104 148 117.2 152.2C130.3 156.3 143.7 172.7 156.8 169C170 165.3 183 141.7 196 134C209 126.3 222 134.7 235 149.3C248 164 261 185 274 184.7C287 184.3 300 162.7 313 161.2C326 159.7 339 178.3 352 170.2C365 162 378 127 391 127.7C404 128.3 417 164.7 430.2 171C443.3 177.3 456.7 153.7 469.8 152C483 150.3 496 170.7 509 167.8C522 165 535 139 548 140.7C561 142.3 574 171.7 587 171.5C600 171.3 613 141.7 626 142.5C639 143.3 652 174.7 665 175.3C678 176 691 146 704 132.2C717 118.3 730 120.7 743.2 130.7C756.3 140.7 769.7 158.3 782.8 168.7C796 179 809 182 822 169C835 156 848 127 861 119.5C874 112 887 126 893.5 133L900 140L900 301L893.5 301C887 301 874 301 861 301C848 301 835 301 822 301C809 301 796 301 782.8 301C769.7 301 756.3 301 743.2 301C730 301 717 301 704 301C691 301 678 301 665 301C652 301 639 301 626 301C613 301 600 301 587 301C574 301 561 301 548 301C535 301 522 301 509 301C496 301 483 301 469.8 301C456.7 301 443.3 301 430.2 301C417 301 404 301 391 301C378 301 365 301 352 301C339 301 326 301 313 301C300 301 287 301 274 301C261 301 248 301 235 301C222 301 209 301 196 301C183 301 170 301 156.8 301C143.7 301 130.3 301 117.2 301C104 301 91 301 78 301C65 301 52 301 39 301C26 301 13 301 6.5 301L0 301Z" fill="#FD5A1E" stroke-linecap="round" stroke-linejoin="miter"></path></svg>