<svg id="visual" viewBox="0 0 2560 300" width="2560" height="300" xmlns="http://www.w3.org/2000/svg" xmlns:xlink="http://www.w3.org/1999/xlink" version="1.1"><rect x="0" y="0" width="2560" height="300" fill="#27251f"></rect><path d="M0 85L15.8 82.7C31.7 80.3 63.3 75.7 95 76C126.7 76.3 158.3 81.7 189.8 103.3C221.3 125 252.7 163 284.2 173.7C315.7 184.3 347.3 167.7 379 165.2C410.7 162.7 442.3 174.3 474 173.7C505.7 173 537.3 160 569 140.7C600.7 121.3 632.3 95.7 664 100C695.7 104.3 727.3 138.7 758.8 149.2C790.3 159.7 821.7 146.3 853.2 154.5C884.7 162.7 916.3 192.3 948 184.2C979.7 176 1011.3 130 1043 118.8C1074.7 107.7 1106.3 131.3 1138 155.5C1169.7 179.7 1201.3 204.3 1232.8 213.8C1264.3 223.3 1295.7 217.7 1327.2 221.8C1358.7 226 1390.3 240 1422 231.2C1453.7 222.3 1485.3 190.7 1517 176.7C1548.7 162.7 1580.3 166.3 1612 155.2C1643.7 144 1675.3 118 1706.8 131.2C1738.3 144.3 1769.7 196.7 1801.2 217.7C1832.7 238.7 1864.3 228.3 1896 221C1927.7 213.7 1959.3 209.3 1991 214.2C2022.7 219 2054.3 233 2086 224.5C2117.7 216 2149.3 185 2181 158.8C2212.7 132.7 2244.3 111.3 2275.8 106C2307.3 100.7 2338.7 111.3 2370.2 131.7C2401.7 152 2433.3 182 2465 193.2C2496.7 204.3 2528.3 196.7 2544.2 192.8L2560 189L2560 301L2544.2 301C2528.3 301 2496.7 301 2465 301C2433.3 301 2401.7 301 2370.2 301C2338.7 301 2307.3 301 2275.8 301C2244.3 301 2212.7 301 2181 301C2149.3 301 2117.7 301 2086 301C2054.3 301 2022.7 301 1991 301C1959.3 301 1927.7 301 1896 301C1864.3 301 1832.7 301 1801.2 301C1769.7 301 1738.3 301 1706.8 301C1675.3 301 1643.7 301 1612 301C1580.3 301 1548.7 301 1517 301C1485.3 301 1453.7 301 1422 301C1390.3 301 1358.7 301 1327.2 301C1295.7 301 1264.3 301 1232.8 301C1201.3 301 1169.7 301 1138 301C1106.3 301 1074.7 301 1043 301C1011.3 301 979.7 301 948 301C916.3 301 884.7 301 853.2 301C821.7 301 790.3 301 758.8 301C727.3 301 695.7 301 664 301C632.3 301 600.7 301 569 301C537.3 301 505.7 301 474 301C442.3 301 410.7 301 379 301C347.3 301 315.7 301 284.2 301C252.7 301 221.3 301 189.8 301C158.3 301 126.7 301 95 301C63.3 301 31.7 301 15.8 301L0 301Z" fill="#fd5a1e" stroke-linecap="round" stroke-linejoin="miter"></path></svg>