<svg id="visual" viewBox="0 0 2560 300" width="2560" height="300" xmlns="http://www.w3.org/2000/svg" xmlns:xlink="http://www.w3.org/1999/xlink" version="1.1"><rect x="0" y="0" width="2560" height="300" fill="#27251f"></rect><path d="M0 121L15.8 136.2C31.7 151.3 63.3 181.7 95 203.3C126.7 225 158.3 238 189.8 220.8C221.3 203.7 252.7 156.3 284.2 143.8C315.7 131.3 347.3 153.7 379 149.3C410.7 145 442.3 114 474 99.7C505.7 85.3 537.3 87.7 569 114.5C600.7 141.3 632.3 192.7 664 219.8C695.7 247 727.3 250 758.8 225.7C790.3 201.3 821.7 149.7 853.2 131.7C884.7 113.7 916.3 129.3 948 135C979.7 140.7 1011.3 136.3 1043 141.5C1074.7 146.7 1106.3 161.3 1138 172.8C1169.7 184.3 1201.3 192.7 1232.8 183C1264.3 173.3 1295.7 145.7 1327.2 138.7C1358.7 131.7 1390.3 145.3 1422 151.3C1453.7 157.3 1485.3 155.7 1517 158C1548.7 160.3 1580.3 166.7 1612 176.7C1643.7 186.7 1675.3 200.3 1706.8 199.5C1738.3 198.7 1769.7 183.3 1801.2 181.8C1832.7 180.3 1864.3 192.7 1896 185.2C1927.7 177.7 1959.3 150.3 1991 134.7C2022.7 119 2054.3 115 2086 123.8C2117.7 132.7 2149.3 154.3 2181 152.3C2212.7 150.3 2244.3 124.7 2275.8 125.5C2307.3 126.3 2338.7 153.7 2370.2 176.3C2401.7 199 2433.3 217 2465 215.5C2496.7 214 2528.3 193 2544.2 182.5L2560 172L2560 301L2544.2 301C2528.3 301 2496.7 301 2465 301C2433.3 301 2401.7 301 2370.2 301C2338.7 301 2307.3 301 2275.8 301C2244.3 301 2212.7 301 2181 301C2149.3 301 2117.7 301 2086 301C2054.3 301 2022.7 301 1991 301C1959.3 301 1927.7 301 1896 301C1864.3 301 1832.7 301 1801.2 301C1769.7 301 1738.3 301 1706.8 301C1675.3 301 1643.7 301 1612 301C1580.3 301 1548.7 301 1517 301C1485.3 301 1453.7 301 1422 301C1390.3 301 1358.7 301 1327.2 301C1295.7 301 1264.3 301 1232.8 301C1201.3 301 1169.7 301 1138 301C1106.3 301 1074.7 301 1043 301C1011.3 301 979.7 301 948 301C916.3 301 884.7 301 853.2 301C821.7 301 790.3 301 758.8 301C727.3 301 695.7 301 664 301C632.3 301 600.7 301 569 301C537.3 301 505.7 301 474 301C442.3 301 410.7 301 379 301C347.3 301 315.7 301 284.2 301C252.7 301 221.3 301 189.8 301C158.3 301 126.7 301 95 301C63.3 301 31.7 301 15.8 301L0 301Z" fill="#fd5a1e" stroke-linecap="round" stroke-linejoin="miter"></path></svg>