<svg id="visual" viewBox="0 0 2560 300" width="2560" height="300" xmlns="http://www.w3.org/2000/svg" xmlns:xlink="http://www.w3.org/1999/xlink" version="1.1"><rect x="0" y="0" width="2560" height="300" fill="#27251f"></rect><path d="M0 256L15.8 243.2C31.7 230.3 63.3 204.7 95 186.3C126.7 168 158.3 157 189.8 149.8C221.3 142.7 252.7 139.3 284.2 144.5C315.7 149.7 347.3 163.3 379 176.7C410.7 190 442.3 203 474 208.5C505.7 214 537.3 212 569 199.2C600.7 186.3 632.3 162.7 664 169.3C695.7 176 727.3 213 758.8 212.8C790.3 212.7 821.7 175.3 853.2 148.3C884.7 121.3 916.3 104.7 948 104.2C979.7 103.7 1011.3 119.3 1043 146.5C1074.7 173.7 1106.3 212.3 1138 223C1169.7 233.7 1201.3 216.3 1232.8 193.2C1264.3 170 1295.7 141 1327.2 140.8C1358.7 140.7 1390.3 169.3 1422 163.7C1453.7 158 1485.3 118 1517 113.8C1548.7 109.7 1580.3 141.3 1612 164C1643.7 186.7 1675.3 200.3 1706.8 190.2C1738.3 180 1769.7 146 1801.2 151.7C1832.7 157.3 1864.3 202.7 1896 212.2C1927.7 221.7 1959.3 195.3 1991 166.3C2022.7 137.3 2054.3 105.7 2086 90C2117.7 74.3 2149.3 74.7 2181 80.5C2212.7 86.3 2244.3 97.7 2275.8 114.2C2307.3 130.7 2338.7 152.3 2370.2 167.3C2401.7 182.3 2433.3 190.7 2465 191C2496.7 191.3 2528.3 183.7 2544.2 179.8L2560 176L2560 301L2544.2 301C2528.3 301 2496.7 301 2465 301C2433.3 301 2401.7 301 2370.2 301C2338.7 301 2307.3 301 2275.8 301C2244.3 301 2212.7 301 2181 301C2149.3 301 2117.7 301 2086 301C2054.3 301 2022.7 301 1991 301C1959.3 301 1927.7 301 1896 301C1864.3 301 1832.7 301 1801.2 301C1769.7 301 1738.3 301 1706.8 301C1675.3 301 1643.7 301 1612 301C1580.3 301 1548.7 301 1517 301C1485.3 301 1453.7 301 1422 301C1390.3 301 1358.7 301 1327.2 301C1295.7 301 1264.3 301 1232.8 301C1201.3 301 1169.7 301 1138 301C1106.3 301 1074.7 301 1043 301C1011.3 301 979.7 301 948 301C916.3 301 884.7 301 853.2 301C821.7 301 790.3 301 758.8 301C727.3 301 695.7 301 664 301C632.3 301 600.7 301 569 301C537.3 301 505.7 301 474 301C442.3 301 410.7 301 379 301C347.3 301 315.7 301 284.2 301C252.7 301 221.3 301 189.8 301C158.3 301 126.7 301 95 301C63.3 301 31.7 301 15.8 301L0 301Z" fill="#fd5a1e" stroke-linecap="round" stroke-linejoin="miter"></path></svg>