<svg id="visual" viewBox="0 0 2560 300" width="2560" height="300" xmlns="http://www.w3.org/2000/svg" xmlns:xlink="http://www.w3.org/1999/xlink" version="1.1"><rect x="0" y="0" width="2560" height="300" fill="#27251f"></rect><path d="M0 94L15.8 91C31.7 88 63.3 82 95 95C126.7 108 158.3 140 189.8 166.7C221.3 193.3 252.7 214.7 284.2 218.2C315.7 221.7 347.3 207.3 379 193.7C410.7 180 442.3 167 474 176C505.7 185 537.3 216 569 220.7C600.7 225.3 632.3 203.7 664 196.3C695.7 189 727.3 196 758.8 204.5C790.3 213 821.7 223 853.2 225.7C884.7 228.3 916.3 223.7 948 212.7C979.7 201.7 1011.3 184.3 1043 163.3C1074.7 142.3 1106.3 117.7 1138 101.7C1169.7 85.7 1201.3 78.3 1232.8 82.8C1264.3 87.3 1295.7 103.7 1327.2 126.8C1358.7 150 1390.3 180 1422 180.3C1453.7 180.7 1485.3 151.3 1517 137.5C1548.7 123.7 1580.3 125.3 1612 128.3C1643.7 131.3 1675.3 135.7 1706.8 135.8C1738.3 136 1769.7 132 1801.2 135.5C1832.7 139 1864.3 150 1896 144.7C1927.7 139.3 1959.3 117.7 1991 110C2022.7 102.3 2054.3 108.7 2086 123.2C2117.7 137.7 2149.3 160.3 2181 165.3C2212.7 170.3 2244.3 157.7 2275.8 155C2307.3 152.3 2338.7 159.7 2370.2 154.5C2401.7 149.3 2433.3 131.7 2465 123.8C2496.7 116 2528.3 118 2544.2 119L2560 120L2560 301L2544.2 301C2528.3 301 2496.7 301 2465 301C2433.3 301 2401.7 301 2370.2 301C2338.7 301 2307.3 301 2275.8 301C2244.3 301 2212.7 301 2181 301C2149.3 301 2117.7 301 2086 301C2054.3 301 2022.7 301 1991 301C1959.3 301 1927.7 301 1896 301C1864.3 301 1832.7 301 1801.2 301C1769.7 301 1738.3 301 1706.8 301C1675.3 301 1643.7 301 1612 301C1580.3 301 1548.7 301 1517 301C1485.3 301 1453.7 301 1422 301C1390.3 301 1358.7 301 1327.2 301C1295.7 301 1264.3 301 1232.8 301C1201.3 301 1169.7 301 1138 301C1106.3 301 1074.7 301 1043 301C1011.3 301 979.7 301 948 301C916.3 301 884.7 301 853.2 301C821.7 301 790.3 301 758.8 301C727.3 301 695.7 301 664 301C632.3 301 600.7 301 569 301C537.3 301 505.7 301 474 301C442.3 301 410.7 301 379 301C347.3 301 315.7 301 284.2 301C252.7 301 221.3 301 189.8 301C158.3 301 126.7 301 95 301C63.3 301 31.7 301 15.8 301L0 301Z" fill="#fd5a1e" stroke-linecap="round" stroke-linejoin="miter"></path></svg>