<svg id="visual" viewBox="0 0 900 300" width="900" height="300" xmlns="http://www.w3.org/2000/svg" xmlns:xlink="http://www.w3.org/1999/xlink" version="1.1"><rect x="0" y="0" width="900" height="300" fill="#ae8f6f"></rect><path d="M0 174L6.5 169.7C13 165.3 26 156.7 39 156C52 155.3 65 162.7 78 164.2C91 165.7 104 161.3 117.2 154.2C130.3 147 143.7 137 156.8 135.3C170 133.7 183 140.3 196 143.5C209 146.7 222 146.3 235 155C248 163.7 261 181.3 274 188.2C287 195 300 191 313 173.7C326 156.3 339 125.7 352 116.2C365 106.7 378 118.3 391 134.2C404 150 417 170 430.2 178.7C443.3 187.3 456.7 184.7 469.8 185.3C483 186 496 190 509 192.5C522 195 535 196 548 187.5C561 179 574 161 587 148.3C600 135.7 613 128.3 626 138.2C639 148 652 175 665 183.2C678 191.3 691 180.7 704 167.3C717 154 730 138 743.2 142C756.3 146 769.7 170 782.8 167.7C796 165.3 809 136.7 822 139.2C835 141.7 848 175.3 861 180.5C874 185.7 887 162.3 893.5 150.7L900 139L900 301L893.5 301C887 301 874 301 861 301C848 301 835 301 822 301C809 301 796 301 782.8 301C769.7 301 756.3 301 743.2 301C730 301 717 301 704 301C691 301 678 301 665 301C652 301 639 301 626 301C613 301 600 301 587 301C574 301 561 301 548 301C535 301 522 301 509 301C496 301 483 301 469.8 301C456.7 301 443.3 301 430.2 301C417 301 404 301 391 301C378 301 365 301 352 301C339 301 326 301 313 301C300 301 287 301 274 301C261 301 248 301 235 301C222 301 209 301 196 301C183 301 170 301 156.8 301C143.7 301 130.3 301 117.2 301C104 301 91 301 78 301C65 301 52 301 39 301C26 301 13 301 6.5 301L0 301Z" fill="#27251F" stroke-linecap="round" stroke-linejoin="miter"></path></svg>