<svg id="visual" viewBox="0 0 2560 300" width="2560" height="300" xmlns="http://www.w3.org/2000/svg" xmlns:xlink="http://www.w3.org/1999/xlink" version="1.1"><rect x="0" y="0" width="2560" height="300" fill="#27251f"></rect><path d="M0 141L15.8 140.3C31.7 139.7 63.3 138.3 95 135.7C126.7 133 158.3 129 189.8 135.3C221.3 141.7 252.7 158.3 284.2 167.5C315.7 176.7 347.3 178.3 379 187.2C410.7 196 442.3 212 474 206.8C505.7 201.7 537.3 175.3 569 161.7C600.7 148 632.3 147 664 139.8C695.7 132.7 727.3 119.3 758.8 113.8C790.3 108.3 821.7 110.7 853.2 128.2C884.7 145.7 916.3 178.3 948 174.2C979.7 170 1011.3 129 1043 119.7C1074.7 110.3 1106.3 132.7 1138 139.2C1169.7 145.7 1201.3 136.3 1232.8 152.2C1264.3 168 1295.7 209 1327.2 213.2C1358.7 217.3 1390.3 184.7 1422 157.2C1453.7 129.7 1485.3 107.3 1517 104.7C1548.7 102 1580.3 119 1612 121.5C1643.7 124 1675.3 112 1706.8 119C1738.3 126 1769.7 152 1801.2 154.5C1832.7 157 1864.3 136 1896 139.5C1927.7 143 1959.3 171 1991 178.8C2022.7 186.7 2054.3 174.3 2086 183.8C2117.7 193.3 2149.3 224.7 2181 223.7C2212.7 222.7 2244.3 189.3 2275.8 182.8C2307.3 176.3 2338.7 196.7 2370.2 198.3C2401.7 200 2433.3 183 2465 176.2C2496.7 169.3 2528.3 172.7 2544.2 174.3L2560 176L2560 301L2544.2 301C2528.3 301 2496.7 301 2465 301C2433.3 301 2401.7 301 2370.2 301C2338.7 301 2307.3 301 2275.8 301C2244.3 301 2212.7 301 2181 301C2149.3 301 2117.7 301 2086 301C2054.3 301 2022.7 301 1991 301C1959.3 301 1927.7 301 1896 301C1864.3 301 1832.7 301 1801.2 301C1769.7 301 1738.3 301 1706.8 301C1675.3 301 1643.7 301 1612 301C1580.3 301 1548.7 301 1517 301C1485.3 301 1453.7 301 1422 301C1390.3 301 1358.7 301 1327.2 301C1295.7 301 1264.3 301 1232.8 301C1201.3 301 1169.7 301 1138 301C1106.3 301 1074.7 301 1043 301C1011.3 301 979.7 301 948 301C916.3 301 884.7 301 853.2 301C821.7 301 790.3 301 758.8 301C727.3 301 695.7 301 664 301C632.3 301 600.7 301 569 301C537.3 301 505.7 301 474 301C442.3 301 410.7 301 379 301C347.3 301 315.7 301 284.2 301C252.7 301 221.3 301 189.8 301C158.3 301 126.7 301 95 301C63.3 301 31.7 301 15.8 301L0 301Z" fill="#fd5a1e" stroke-linecap="round" stroke-linejoin="miter"></path></svg>